<?xml version="1.0" encoding="UTF-8"?>
<svg width="64px" height="65px" viewBox="0 0 64 65" version="1.1" xmlns="http://www.w3.org/2000/svg" xmlns:xlink="http://www.w3.org/1999/xlink">
    <title>Group 7</title>
    <defs>
        <polygon id="path-1" points="0 0 56.5029506 0 56.5029506 56.5017262 0 56.5017262"></polygon>
        <polygon id="path-3" points="0 0 16.8221179 0 16.8221179 16.8230883 0 16.8230883"></polygon>
    </defs>
    <g id="Maquettes" stroke="none" stroke-width="1" fill="none" fill-rule="evenodd">
        <g id="Accueil-06-01-blue-cumulus-975" transform="translate(-1147.000000, -2955.000000)">
            <g id="services-et-ressources" transform="translate(119.000000, 2830.500000)">
                <g id="annuaire" transform="translate(919.000000, 77.000000)">
                    <g id="Group-7" transform="translate(109.000000, 48.000000)">
                        <g id="Group-3">
                            <mask id="mask-2" fill="white">
                                <use xlink:href="#path-1"></use>
                            </mask>
                            <g id="Clip-2"></g>
                            <path d="M28.2514753,2.9723664 C14.3130895,2.9723664 2.97383951,14.3116691 2.97383951,28.2501197 C2.97383951,42.1885702 14.3130895,53.5278729 28.2514753,53.5278729 C42.1898611,53.5278729 53.5291111,42.1885702 53.5291111,28.2501197 C53.5291111,14.3116691 42.1898611,2.9723664 28.2514753,2.9723664 M28.2514753,56.5017262 C12.674504,56.5017262 0,43.8271634 0,28.2501197 C0,12.6730759 12.674504,-0.00148692666 28.2514753,-0.00148692666 C43.8284466,-0.00148692666 56.5029506,12.6730759 56.5029506,28.2501197 C56.5029506,43.8271634 43.8284466,56.5017262 28.2514753,56.5017262" id="Fill-1" fill="#000091" mask="url(#mask-2)"></path>
                        </g>
                        <g id="Group-6" transform="translate(47.177882, 47.176912)">
                            <mask id="mask-4" fill="white">
                                <use xlink:href="#path-3"></use>
                            </mask>
                            <g id="Clip-5"></g>
                            <path d="M4.20500906,6.3075429 L10.5125227,12.6180597 L12.618001,10.5125715 L6.30751359,4.2050286 L4.20500906,6.3075429 Z M10.5125227,16.8230883 L0,6.3075429 L6.30751359,0 L16.8230101,10.5125715 L10.5125227,16.8230883 Z" id="Fill-4" fill="#417DC4" mask="url(#mask-4)"></path>
                        </g>
                    </g>
                </g>
            </g>
        </g>
    </g>
</svg>