<?xml version="1.0" encoding="UTF-8"?>
<svg width="64px" height="65px" viewBox="0 0 64 65" version="1.1" xmlns="http://www.w3.org/2000/svg" xmlns:xlink="http://www.w3.org/1999/xlink">
    <title>Group 8</title>
    <defs>
        <polygon id="path-1" points="0 64 64 64 64 0 0 0"></polygon>
    </defs>
    <g id="Maquettes" stroke="none" stroke-width="1" fill="none" fill-rule="evenodd">
        <g id="Accueil-06-01-blue-cumulus-975" transform="translate(-841.000000, -3196.000000)">
            <g id="services-et-ressources" transform="translate(119.000000, 2830.500000)">
                <g id="Group-8" transform="translate(722.000000, 365.547294)">
                    <path d="M8,6.6672 C7.264,6.6672 6.66666667,7.26453333 6.66666667,8.00053333 L6.66666667,50.6672 C6.66666667,54.3445333 9.65866667,57.3338667 13.3333333,57.3338667 L50.6666667,57.3338667 C54.344,57.3338667 57.3333333,54.3445333 57.3333333,50.6672 L57.3333333,41.3338667 L46.6666667,41.3338667 L46.6666667,8.00053333 C46.6666667,7.26453333 46.0666667,6.6672 45.3333333,6.6672 L8,6.6672 Z M50.6666667,60.0005333 L13.3333333,60.0005333 C8.18666667,60.0005333 4,55.8138667 4,50.6672 L4,8.00053333 C4,5.7952 5.79466667,4.00053333 8,4.00053333 L45.3333333,4.00053333 C47.5386667,4.00053333 49.3333333,5.7952 49.3333333,8.00053333 L49.3333333,38.6672 L60,38.6672 L60,50.6672 C60,55.8138667 55.8133333,60.0005333 50.6666667,60.0005333 L50.6666667,60.0005333 Z" id="Fill-1" fill="#000091"></path>
                    <mask id="mask-2" fill="white">
                        <use xlink:href="#path-1"></use>
                    </mask>
                    <g id="Clip-4"></g>
                    <path d="M17.3333333,22.6666667 L36,22.6666667 L36,20 L17.3333333,20 L17.3333333,22.6666667 Z M14.6666667,25.3333333 L38.6666667,25.3333333 L38.6666667,17.3333333 L14.6666667,17.3333333 L14.6666667,25.3333333 Z" id="Fill-3" fill="#417DC4" mask="url(#mask-2)"></path>
                    <path d="M17.3333333,33.3333333 L36,33.3333333 L36,30.6666667 L17.3333333,30.6666667 L17.3333333,33.3333333 Z M14.6666667,36 L38.6666667,36 L38.6666667,28 L14.6666667,28 L14.6666667,36 Z" id="Fill-5" fill="#417DC4" mask="url(#mask-2)"></path>
                    <path d="M17.3333333,44 L28,44 L28,41.3333333 L17.3333333,41.3333333 L17.3333333,44 Z M14.6666667,46.6666667 L30.6666667,46.6666667 L30.6666667,38.6666667 L14.6666667,38.6666667 L14.6666667,46.6666667 Z" id="Fill-6" fill="#417DC4" mask="url(#mask-2)"></path>
                    <polygon id="Fill-7" fill="#000091" mask="url(#mask-2)" points="46.6666667 58.928 49.3333333 58.928 49.3333333 40 46.6666667 40"></polygon>
                </g>
            </g>
        </g>
    </g>
</svg>