<?xml version="1.0" encoding="UTF-8"?>
<svg width="64px" height="65px" viewBox="0 0 64 65" version="1.1" xmlns="http://www.w3.org/2000/svg" xmlns:xlink="http://www.w3.org/1999/xlink">
    <title>Group 14</title>
    <g id="Maquettes" stroke="none" stroke-width="1" fill="none" fill-rule="evenodd">
        <g id="Accueil-06-01-blue-cumulus-975" transform="translate(-847.000000, -2952.000000)">
            <g id="services-et-ressources" transform="translate(119.000000, 2830.500000)">
                <g id="casier" transform="translate(614.000000, 78.000000)">
                    <g id="Group-14" transform="translate(114.000000, 44.000000)">
                        <path d="M23.6334232,36.8888889 L39.1590296,36.8888889 L39.1590296,33.7777778 L23.6334232,33.7777778 L23.6334232,36.8888889 Z M20.5283019,40 L42.2641509,40 L42.2641509,30.6666667 L20.5283019,30.6666667 L20.5283019,40 Z" id="Fill-1" fill="#417DC4"></path>
                        <path d="M60.952381,23.5789474 L60.0106667,23.5789474 L60.0106667,23.5688421 L3.04761905,23.5688421 L3.04761905,5.06273684 C3.04761905,4.14315789 3.73638095,3.36842105 4.54704762,3.36842105 L59.456,3.36842105 C59.7394286,3.41894737 60.2300952,3.53684211 60.5104762,3.85010526 C60.7939048,4.16 60.952381,4.57431579 60.952381,5.06273684 L60.952381,23.5789474 Z M57.9047722,58.9574737 C57.9078095,59.8770526 57.2312381,60.6282105 56.4022857,60.6315789 L7.60380952,60.6315789 C6.7687619,60.6282105 6.0952381,59.8736842 6.0952381,58.9507368 L6.0952381,26.9372632 L57.9047722,26.9372632 L57.9047722,58.9574737 Z M62.6651429,1.46189474 C61.8057143,0.518736842 60.6689524,0 59.4651429,0 L59.4529524,0 L4.54704762,0 C2.03885714,0 0,2.27031579 0,5.06273684 L0,26.9473684 L3.04761905,26.9473684 L3.04761905,58.9473684 C3.04152381,61.7229474 5.08038095,63.9898947 7.59771429,64 L56.408381,64 C57.624381,63.9966316 58.7672381,63.4677895 59.623619,62.5145263 C60.4860952,61.5578947 60.9554286,60.288 60.952381,58.9507368 L60.952381,26.9473684 L64,26.9473684 L64,5.00884211 C63.9969524,3.66821053 63.5245714,2.40842105 62.6651429,1.46189474 L62.6651429,1.46189474 Z" id="Fill-2" fill="#000091"></path>
                    </g>
                </g>
            </g>
        </g>
    </g>
</svg>