<?xml version="1.0" encoding="UTF-8"?>
<svg width="64px" height="65px" viewBox="0 0 64 65" version="1.1" xmlns="http://www.w3.org/2000/svg" xmlns:xlink="http://www.w3.org/1999/xlink">
    <title>Group 8</title>
    <defs>
        <polygon id="path-1" points="0 64 64 64 64 1.16363636 0 1.16363636"></polygon>
    </defs>
    <g id="Maquettes" stroke="none" stroke-width="1" fill="none" fill-rule="evenodd">
        <g id="Accueil-06-01-blue-cumulus-975" transform="translate(-233.000000, -2952.000000)">
            <g id="services-et-ressources" transform="translate(119.000000, 2830.500000)">
                <g id="demarche" transform="translate(0.000000, 78.000000)">
                    <g id="Group-8" transform="translate(114.000000, 44.000000)">
                        <path d="M51.4449761,62.8363636 L4.40956938,62.8363636 C1.97842679,62.8363636 0,60.8226078 0,58.3480519 L0,4.48831169 C0,2.01375584 1.97842679,0 4.40956938,0 L51.4449761,0 C53.8761187,0 55.8545455,2.01375584 55.8545455,4.48831169 L55.8545455,16.3494234 L49.5459215,22.7707013 L47.4646048,20.6552104 L52.9148325,15.1106494 L52.9148325,4.48831169 C52.9148325,3.66246234 52.2533971,2.99220779 51.4449761,2.99220779 L4.40956938,2.99220779 C3.59820861,2.99220779 2.93971292,3.66246234 2.93971292,4.48831169 L2.93971292,58.3480519 C2.93971292,59.1709091 3.59820861,59.8441558 4.40956938,59.8441558 L51.4449761,59.8441558 C52.2533971,59.8441558 52.9148325,59.1709091 52.9148325,58.3480519 L52.9148325,44.7305143 L49.5459215,48.1625766 L47.4646048,46.0470857 L55.8545455,37.5073247 L55.8545455,58.3480519 C55.8545455,60.8226078 53.8761187,62.8363636 51.4449761,62.8363636" id="Fill-1" fill="#000091"></path>
                        <path d="M35.6082572,48.1757092 L37.7466991,48.1787305 L59.729157,26.1899308 L57.5937355,24.0538933 L35.6112776,46.0426929 L35.6082572,48.1757092 Z M38.9971439,51.2 L32.5818182,51.1909362 L32.5908794,44.7918873 L57.5937355,19.7818182 L64,26.1899308 L38.9971439,51.2 Z" id="Fill-3" fill="#417DC4"></path>
                        <mask id="mask-2" fill="white">
                            <use xlink:href="#path-1"></use>
                        </mask>
                        <g id="Clip-6"></g>
                        <path d="M18.230303,36.4606061 L30.6424242,36.4606061 L30.6424242,33.3575758 L18.230303,33.3575758 L18.230303,36.4606061 Z M15.1272727,39.5636364 L33.7454545,39.5636364 L33.7454545,30.2545455 L15.1272727,30.2545455 L15.1272727,39.5636364 Z" id="Fill-5" fill="#417DC4" mask="url(#mask-2)"></path>
                        <path d="M17.0666667,24.8242424 L38.7878788,24.8242424 L38.7878788,21.7212121 L17.0666667,21.7212121 L17.0666667,24.8242424 Z M13.9636364,27.9272727 L41.8909091,27.9272727 L41.8909091,18.6181818 L13.9636364,18.6181818 L13.9636364,27.9272727 Z" id="Fill-7" fill="#417DC4" mask="url(#mask-2)"></path>
                    </g>
                </g>
            </g>
        </g>
    </g>
</svg>