<svg width="80" height="80" viewBox="0 0 80 80" fill="none" xmlns="http://www.w3.org/2000/svg">
<path fill-rule="evenodd" clip-rule="evenodd" d="M73 33.0013C72.4486 33.0013 72 32.5527 72 32.0013C72 31.4499 72.4486 31.0013 73 31.0013C73.5514 31.0013 74 31.4499 74 32.0013C74 32.5527 73.5514 33.0013 73 33.0013Z" fill="#CACAFB"/>
<path fill-rule="evenodd" clip-rule="evenodd" d="M12 43.0013C11.4486 43.0013 11 42.5527 11 42.0013C11 41.4499 11.4486 41.0013 12 41.0013C12.5514 41.0013 13 41.4499 13 42.0013C13 42.5527 12.5514 43.0013 12 43.0013Z" fill="#CACAFB"/>
<path fill-rule="evenodd" clip-rule="evenodd" d="M8 6.00134C7.4486 6.00134 7 5.55274 7 5.00134C7 4.4499 7.4486 4.00134 8 4.00134C8.5514 4.00134 9 4.4499 9 5.00134C9 5.55274 8.5514 6.00134 8 6.00134Z" fill="#CACAFB"/>
<path fill-rule="evenodd" clip-rule="evenodd" d="M23 74.0013C22.4486 74.0013 22 73.5527 22 73.0013C22 72.4499 22.4486 72.0013 23 72.0013C23.5514 72.0013 24 72.4499 24 73.0013C24 73.5527 23.5514 74.0013 23 74.0013Z" fill="#ECECFE"/>
<path fill-rule="evenodd" clip-rule="evenodd" d="M44 8.00134C43.4486 8.00134 43 7.55274 43 7.00134C43 6.4499 43.4486 6.00134 44 6.00134C44.5514 6.00134 45 6.4499 45 7.00134C45 7.55274 44.5514 8.00134 44 8.00134Z" fill="#ECECFE"/>
<path fill-rule="evenodd" clip-rule="evenodd" d="M71 72.0013C70.4486 72.0013 70 71.5527 70 71.0013C70 70.4499 70.4486 70.0013 71 70.0013C71.5514 70.0013 72 70.4499 72 71.0013C72 71.5527 71.5514 72.0013 71 72.0013Z" fill="#ECECFE"/>
<path fill-rule="evenodd" clip-rule="evenodd" d="M66 14.0013C66 14.612 65.8176 15.18 65.5043 15.6538C66.693 16.3409 67.5 17.527 67.5 19.0013C67.5 19.5536 67.0523 20.0013 66.5 20.0013C65.9477 20.0013 65.5 19.5536 65.5 19.0013C65.5 17.9998 64.5917 17.0013 63 17.0013C61.4297 17.0013 60.5 18.0749 60.5 19.0013C60.5 19.5536 60.0523 20.0013 59.5 20.0013C58.9477 20.0013 58.5 19.5536 58.5 19.0013C58.5 17.5886 59.3083 16.3796 60.5074 15.6714C60.187 15.194 60 14.6195 60 14.0013C60 12.3445 61.3431 11.0013 63 11.0013C64.6569 11.0013 66 12.3445 66 14.0013ZM62 14.0013C62 13.4491 62.4477 13.0013 63 13.0013C63.5523 13.0013 64 13.4491 64 14.0013C64 14.5536 63.5523 15.0013 63 15.0013C62.4477 15.0013 62 14.5536 62 14.0013Z" fill="#E1000F"/>
<path fill-rule="evenodd" clip-rule="evenodd" d="M27 19.0013C27 19.612 26.8176 20.18 26.5043 20.6538C27.6929 21.3409 28.5 22.527 28.5 24.0013C28.5 24.5536 28.0523 25.0013 27.5 25.0013C26.9477 25.0013 26.5 24.5536 26.5 24.0013C26.5 22.9998 25.5917 22.0013 24 22.0013C22.4297 22.0013 21.5 23.0749 21.5 24.0013C21.5 24.5536 21.0523 25.0013 20.5 25.0013C19.9477 25.0013 19.5 24.5536 19.5 24.0013C19.5 22.5886 20.3083 21.3796 21.5074 20.6714C21.187 20.194 21 19.6195 21 19.0013C21 17.3445 22.3431 16.0013 24 16.0013C25.6569 16.0013 27 17.3445 27 19.0013ZM23 19.0013C23 18.4491 23.4477 18.0013 24 18.0013C24.5523 18.0013 25 18.4491 25 19.0013C25 19.5536 24.5523 20.0013 24 20.0013C23.4477 20.0013 23 19.5536 23 19.0013Z" fill="#E1000F"/>
<path fill-rule="evenodd" clip-rule="evenodd" d="M37.5 36.0013C37.5 37.0262 37.8854 37.961 38.5191 38.6687C36.4327 39.6645 35 41.6736 35 44.0013C35 44.5536 35.4477 45.0013 36 45.0013C36.5523 45.0013 37 44.5536 37 44.0013C37 41.9265 38.8764 40.0013 41.5 40.0013C44.1371 40.0013 46 41.8389 46 44.0013C46 44.5536 46.4477 45.0013 47 45.0013C47.5523 45.0013 48 44.5536 48 44.0013C48 41.6017 46.5688 39.6285 44.4925 38.6557C45.1193 37.9495 45.5 37.0199 45.5 36.0013C45.5 33.7922 43.7091 32.0013 41.5 32.0013C39.2909 32.0013 37.5 33.7922 37.5 36.0013ZM41.5 34.0013C40.3954 34.0013 39.5 34.8968 39.5 36.0013C39.5 37.1059 40.3954 38.0013 41.5 38.0013L41.5035 38.0013C42.6065 37.9995 43.5 37.1048 43.5 36.0013C43.5 34.8968 42.6046 34.0013 41.5 34.0013Z" fill="#E1000F"/>
<path fill-rule="evenodd" clip-rule="evenodd" d="M47 63.0013C47 63.612 46.8176 64.18 46.5043 64.6538C47.693 65.3409 48.5 66.527 48.5 68.0013C48.5 68.5536 48.0523 69.0013 47.5 69.0013C46.9477 69.0013 46.5 68.5536 46.5 68.0013C46.5 67.0006 45.593 66.0028 44.0036 66.0013L44 66.0013L43.9965 66.0013C42.4284 66.0029 41.5 67.0756 41.5 68.0013C41.5 68.5536 41.0523 69.0013 40.5 69.0013C39.9477 69.0013 39.5 68.5536 39.5 68.0013C39.5 66.5886 40.3083 65.3796 41.5074 64.6714C41.187 64.194 41 63.6195 41 63.0013C41 61.3445 42.3431 60.0013 44 60.0013C45.6569 60.0013 47 61.3445 47 63.0013ZM43 63.0013C43 62.4491 43.4477 62.0013 44 62.0013C44.5523 62.0013 45 62.4491 45 63.0013C45 63.5536 44.5523 64.0013 44 64.0013L43.9975 64.0013C43.4463 64 43 63.5528 43 63.0013Z" fill="#E1000F"/>
<path fill-rule="evenodd" clip-rule="evenodd" d="M67 41.0013C65.3431 41.0013 64 42.3445 64 44.0013C64 44.6195 64.187 45.194 64.5074 45.6714C63.3083 46.3796 62.5 47.5886 62.5 49.0013C62.5 49.5536 62.9477 50.0013 63.5 50.0013C64.0523 50.0013 64.5 49.5536 64.5 49.0013C64.5 48.0749 65.4298 47.0013 67 47.0013C68.5917 47.0013 69.5 47.9998 69.5 49.0013C69.5 49.5536 69.9477 50.0013 70.5 50.0013C71.0523 50.0013 71.5 49.5536 71.5 49.0013C71.5 47.527 70.693 46.3409 69.5043 45.6538C69.8176 45.18 70 44.6119 70 44.0013C70 42.3445 68.6569 41.0013 67 41.0013ZM66 44.0013C66 43.4491 66.4477 43.0013 67 43.0013C67.5523 43.0013 68 43.4491 68 44.0013C68 44.5536 67.5523 45.0013 67 45.0013C66.4477 45.0013 66 44.5536 66 44.0013Z" fill="#E1000F"/>
<path fill-rule="evenodd" clip-rule="evenodd" d="M17 58.0013C17 58.612 16.8176 59.18 16.5043 59.6538C17.6929 60.3409 18.5 61.527 18.5 63.0013C18.5 63.5536 18.0523 64.0013 17.5 64.0013C16.9477 64.0013 16.5 63.5536 16.5 63.0013C16.5 61.9998 15.5917 61.0013 14 61.0013C12.4297 61.0013 11.5 62.0749 11.5 63.0013C11.5 63.5536 11.0523 64.0013 10.5 64.0013C9.94772 64.0013 9.5 63.5536 9.5 63.0013C9.5 61.5886 10.3083 60.3796 11.5074 59.6714C11.187 59.194 11 58.6195 11 58.0013C11 56.3445 12.3431 55.0013 14 55.0013C15.6569 55.0013 17 56.3445 17 58.0013ZM13 58.0013C13 57.4491 13.4477 57.0013 14 57.0013C14.5523 57.0013 15 57.4491 15 58.0013C15 58.5536 14.5523 59.0013 14 59.0013C13.4477 59.0013 13 58.5536 13 58.0013Z" fill="#E1000F"/>
<path d="M12 26.0013C12.5523 26.0013 13 25.5536 13 25.0013C13 24.4491 12.5523 24.0013 12 24.0013C11.4477 24.0013 11 24.4491 11 25.0013C11 25.5536 11.4477 26.0013 12 26.0013Z" fill="#E1000F"/>
<path fill-rule="evenodd" clip-rule="evenodd" d="M67 39.0013C63.134 39.0013 60 42.1353 60 46.0013C60 49.8673 63.134 53.0013 67 53.0013C70.866 53.0013 74 49.8673 74 46.0013C74 42.1353 70.866 39.0013 67 39.0013ZM58 46.0013C58 41.0308 62.0294 37.0013 67 37.0013C71.9706 37.0013 76 41.0308 76 46.0013C76 50.9719 71.9706 55.0013 67 55.0013C62.0294 55.0013 58 50.9719 58 46.0013Z" fill="#000091"/>
<path fill-rule="evenodd" clip-rule="evenodd" d="M13.4335 27.1773C13.8886 26.8644 14.5112 26.9797 14.824 27.4348C15.7999 28.8542 17.2464 29.9565 18.9472 30.8069C19.4412 31.0539 19.6414 31.6546 19.3944 32.1486C19.1474 32.6425 18.5468 32.8428 18.0528 32.5958C16.1536 31.6462 14.4001 30.3485 13.176 28.5679C12.8631 28.1128 12.9784 27.4902 13.4335 27.1773Z" fill="#000091"/>
<path fill-rule="evenodd" clip-rule="evenodd" d="M24 14.0013C20.134 14.0013 17 17.1353 17 21.0013C17 24.8673 20.134 28.0013 24 28.0013C27.866 28.0013 31 24.8673 31 21.0013C31 17.1353 27.866 14.0013 24 14.0013ZM15 21.0013C15 16.0308 19.0294 12.0013 24 12.0013C28.9706 12.0013 33 16.0308 33 21.0013C33 25.9719 28.9706 30.0013 24 30.0013C19.0294 30.0013 15 25.9719 15 21.0013Z" fill="#000091"/>
<path fill-rule="evenodd" clip-rule="evenodd" d="M14 53.0013C10.134 53.0013 7 56.1353 7 60.0013C7 63.8673 10.134 67.0013 14 67.0013C17.866 67.0013 21 63.8673 21 60.0013C21 56.1353 17.866 53.0013 14 53.0013ZM5 60.0013C5 55.0308 9.02944 51.0013 14 51.0013C18.9706 51.0013 23 55.0308 23 60.0013C23 64.9719 18.9706 69.0013 14 69.0013C9.02944 69.0013 5 64.9719 5 60.0013Z" fill="#000091"/>
<path fill-rule="evenodd" clip-rule="evenodd" d="M54 16.0013C54 11.0491 58.0477 7.00134 63 7.00134C64.3592 7.00134 65.7119 7.33927 66.8472 7.90692C67.3412 8.15391 67.5414 8.75458 67.2944 9.24856C67.0474 9.74254 66.4468 9.94276 65.9528 9.69577C65.0881 9.26341 64.0408 9.00134 63 9.00134C59.1523 9.00134 56 12.1536 56 16.0013C56 19.8491 59.1523 23.0013 63 23.0013C66.8477 23.0013 70 19.8491 70 16.0013C70 15.4491 70.4477 15.0013 71 15.0013C71.5523 15.0013 72 15.4491 72 16.0013C72 20.9536 67.9523 25.0013 63 25.0013C58.0477 25.0013 54 20.9536 54 16.0013Z" fill="#000091"/>
<path fill-rule="evenodd" clip-rule="evenodd" d="M68.2 10.2013C68.5314 9.75951 69.1582 9.66996 69.6 10.0013C69.701 10.0771 69.7838 10.1576 69.8429 10.2185C69.8999 10.2773 69.9541 10.3382 69.9926 10.3815C69.9942 10.3834 69.9958 10.3852 69.9974 10.387C70.042 10.4371 70.069 10.4673 70.0929 10.4919C70.1015 10.5007 70.1071 10.5062 70.11 10.5089C70.5432 10.8422 70.6289 11.4628 70.3 11.9013C69.9686 12.3432 69.3418 12.4327 68.9 12.1013C68.799 12.0256 68.7162 11.9451 68.6571 11.8842C68.6001 11.8254 68.5459 11.7645 68.5074 11.7211C68.5058 11.7193 68.5042 11.7175 68.5026 11.7157C68.458 11.6655 68.431 11.6354 68.4071 11.6108C68.3985 11.6019 68.3929 11.5965 68.39 11.5938C67.9568 11.2605 67.8711 10.6398 68.2 10.2013Z" fill="#000091"/>
<path fill-rule="evenodd" clip-rule="evenodd" d="M35 65.0013C35 60.0491 39.0477 56.0013 44 56.0013C48.9523 56.0013 53 60.0491 53 65.0013C53 69.9536 48.9523 74.0013 44 74.0013C42.6408 74.0013 41.2881 73.6634 40.1528 73.0958C39.6588 72.8488 39.4586 72.2481 39.7056 71.7541C39.9526 71.2601 40.5532 71.0599 41.0472 71.3069C41.9119 71.7393 42.9592 72.0013 44 72.0013C47.8477 72.0013 51 68.8491 51 65.0013C51 61.1536 47.8477 58.0013 44 58.0013C40.1523 58.0013 37 61.1536 37 65.0013C37 65.5536 36.5523 66.0013 36 66.0013C35.4477 66.0013 35 65.5536 35 65.0013Z" fill="#000091"/>
<path fill-rule="evenodd" clip-rule="evenodd" d="M37.2 69.4013C37.5314 68.9595 38.1582 68.87 38.6 69.2013C38.701 69.2771 38.7838 69.3576 38.8429 69.4185C38.8999 69.4773 38.9541 69.5382 38.9926 69.5816C38.9942 69.5834 38.9958 69.5852 38.9974 69.587C39.042 69.6371 39.069 69.6673 39.0929 69.6919C39.1015 69.7007 39.1071 69.7062 39.11 69.7089C39.5432 70.0422 39.6289 70.6629 39.3 71.1013C38.9686 71.5432 38.3418 71.6327 37.9 71.3013C37.799 71.2256 37.7162 71.1451 37.6571 71.0842C37.6001 71.0254 37.5459 70.9645 37.5074 70.9211C37.5058 70.9193 37.5042 70.9175 37.5026 70.9157C37.458 70.8656 37.431 70.8354 37.4071 70.8108C37.3985 70.8019 37.3929 70.7965 37.39 70.7938C36.9568 70.4605 36.8711 69.8398 37.2 69.4013Z" fill="#000091"/>
<path fill-rule="evenodd" clip-rule="evenodd" d="M41.5 30.0013C36.2533 30.0013 32 34.2546 32 39.5013C32 44.748 36.2533 49.0013 41.5 49.0013C46.7467 49.0013 51 44.748 51 39.5013C51 34.2546 46.7467 30.0013 41.5 30.0013ZM30 39.5013C30 33.1501 35.1487 28.0013 41.5 28.0013C47.8513 28.0013 53 33.1501 53 39.5013C53 45.8526 47.8513 51.0013 41.5 51.0013C35.1487 51.0013 30 45.8526 30 39.5013Z" fill="#000091"/>
<path fill-rule="evenodd" clip-rule="evenodd" d="M57.7071 21.2943C58.0976 21.6848 58.0976 22.3179 57.7071 22.7085L48.7071 31.7085C48.3166 32.099 47.6834 32.099 47.2929 31.7085C46.9024 31.3179 46.9024 30.6848 47.2929 30.2943L56.2929 21.2943C56.6834 20.9037 57.3166 20.9037 57.7071 21.2943Z" fill="#000091"/>
<path fill-rule="evenodd" clip-rule="evenodd" d="M51.0256 42.7765C51.1498 42.2383 51.6867 41.9028 52.2249 42.0269L58.7249 43.5269C59.263 43.6511 59.5986 44.1881 59.4744 44.7262C59.3502 45.2643 58.8133 45.5999 58.2752 45.4757L51.7752 43.9757C51.237 43.8515 50.9014 43.3146 51.0256 42.7765Z" fill="#000091"/>
<path fill-rule="evenodd" clip-rule="evenodd" d="M42.9169 49.5048C43.4673 49.4589 43.9507 49.8679 43.9965 50.4183L44.4966 56.4183C44.5424 56.9687 44.1334 57.452 43.5831 57.4979C43.0327 57.5438 42.5493 57.1348 42.5035 56.5844L42.0034 50.5844C41.9576 50.034 42.3666 49.5507 42.9169 49.5048Z" fill="#000091"/>
<path fill-rule="evenodd" clip-rule="evenodd" d="M28.7929 26.7942C29.1834 26.4037 29.8166 26.4037 30.2071 26.7942L34.7071 31.2942C35.0976 31.6848 35.0976 32.3179 34.7071 32.7085C34.3166 33.099 33.6834 33.099 33.2929 32.7085L28.7929 28.2085C28.4024 27.8179 28.4024 27.1848 28.7929 26.7942Z" fill="#000091"/>
<path fill-rule="evenodd" clip-rule="evenodd" d="M33.3042 45.907C33.6325 46.3511 33.5385 46.9773 33.0944 47.3055L21.5944 55.8055C21.1503 56.1338 20.5241 56.0399 20.1958 55.5957C19.8676 55.1516 19.9615 54.5255 20.4056 54.1972L31.9056 45.6972C32.3497 45.3689 32.9759 45.4628 33.3042 45.907Z" fill="#000091"/>
</svg>