<?xml version="1.0" encoding="UTF-8"?>
<svg width="64px" height="65px" viewBox="0 0 64 65" version="1.1" xmlns="http://www.w3.org/2000/svg" xmlns:xlink="http://www.w3.org/1999/xlink">
    <title>Group 5</title>
    <g id="Maquettes" stroke="none" stroke-width="1" fill="none" fill-rule="evenodd">
        <g id="Accueil-06-01-blue-cumulus-975" transform="translate(-1149.000000, -3197.000000)">
            <g id="services-et-ressources" transform="translate(119.000000, 2830.500000)">
                <g id="Group-5" transform="translate(1030.000000, 366.547294)">
                    <path d="M27.4246536,3.41502759 C13.4137028,5.61512567 3.04718374,17.6242483 3.04718374,32.0041138 C3.04718374,47.9685374 16.0342808,60.9527727 31.9954292,60.9527727 C46.3781365,60.9527727 58.3840404,50.5891528 60.5871542,36.5749546 L27.4246536,36.5749546 L27.4246536,3.41502759 Z M31.9954292,64 C14.3522354,64 0,49.6475596 0,32.0041138 C0,15.4820475 12.3807075,1.79694992 28.7989335,0.169730558 L30.4718374,0.00213305908 L30.4718374,33.5277274 L63.9969528,33.5277274 L63.8324049,35.2037024 C62.2021616,51.6221629 48.5172594,64 31.9954292,64 L31.9954292,64 Z" id="Fill-1" fill="#000091"></path>
                    <path d="M36.5662048,27.434187 L60.5810598,27.434187 C58.609532,15.1416723 48.858544,5.39054503 36.5662048,3.41898899 L36.5662048,27.434187 Z M64,30.4814143 L33.5190211,30.4814143 L33.5190211,0 L35.1949721,0.167597499 C50.2693901,1.6881639 62.3118602,13.730806 63.8293577,28.8054393 L64,30.4814143 Z" id="Fill-3" fill="#417DC4"></path>
                </g>
            </g>
        </g>
    </g>
</svg>