<svg width="80" height="80" viewBox="0 0 80 80" fill="none" xmlns="http://www.w3.org/2000/svg">
<path fill-rule="evenodd" clip-rule="evenodd" d="M16 6.00134C15.4486 6.00134 15 5.55274 15 5.00134C15 4.4499 15.4486 4.00134 16 4.00134C16.5514 4.00134 17 4.4499 17 5.00134C17 5.55274 16.5514 6.00134 16 6.00134Z" fill="#CACAFB"/>
<path fill-rule="evenodd" clip-rule="evenodd" d="M10 72.0013C9.4486 72.0013 9 71.5527 9 71.0013C9 70.4499 9.4486 70.0013 10 70.0013C10.5514 70.0013 11 70.4499 11 71.0013C11 71.5527 10.5514 72.0013 10 72.0013Z" fill="#CACAFB"/>
<path fill-rule="evenodd" clip-rule="evenodd" d="M75 77.0013C74.4486 77.0013 74 76.5527 74 76.0013C74 75.4499 74.4486 75.0013 75 75.0013C75.5514 75.0013 76 75.4499 76 76.0013C76 76.5527 75.5514 77.0013 75 77.0013Z" fill="#CACAFB"/>
<path fill-rule="evenodd" clip-rule="evenodd" d="M69 10.0013C68.4486 10.0013 68 9.55274 68 9.00134C68 8.4499 68.4486 8.00134 69 8.00134C69.5514 8.00134 70 8.4499 70 9.00134C70 9.55274 69.5514 10.0013 69 10.0013Z" fill="#ECECFE"/>
<path fill-rule="evenodd" clip-rule="evenodd" d="M24 58.0013C24 57.4491 24.4477 57.0013 25 57.0013H55C55.5523 57.0013 56 57.4491 56 58.0013V66.0013C56 66.5536 55.5523 67.0013 55 67.0013H25C24.4477 67.0013 24 66.5536 24 66.0013V58.0013ZM26 59.0013V65.0013H54V59.0013H26Z" fill="#E1000F"/>
<path fill-rule="evenodd" clip-rule="evenodd" d="M28 62.0013C28 61.4491 28.4477 61.0013 29 61.0013H51C51.5523 61.0013 52 61.4491 52 62.0013C52 62.5536 51.5523 63.0013 51 63.0013H29C28.4477 63.0013 28 62.5536 28 62.0013Z" fill="#E1000F"/>
<path fill-rule="evenodd" clip-rule="evenodd" d="M57 31.0013C57.5523 31.0013 58 31.4491 58 32.0013V40.0013C58 40.5536 57.5523 41.0013 57 41.0013C56.4477 41.0013 56 40.5536 56 40.0013V32.0013C56 31.4491 56.4477 31.0013 57 31.0013Z" fill="#E1000F"/>
<path d="M58 28.0013C58 28.5536 57.5523 29.0013 57 29.0013C56.4477 29.0013 56 28.5536 56 28.0013C56 27.4491 56.4477 27.0013 57 27.0013C57.5523 27.0013 58 27.4491 58 28.0013Z" fill="#E1000F"/>
<path fill-rule="evenodd" clip-rule="evenodd" d="M23.175 16.0013C20.3484 16.0013 18 18.2067 18 21.0013V48.0013C18 48.5536 17.5523 49.0013 17 49.0013C16.4477 49.0013 16 48.5536 16 48.0013V21.0013C16 17.0166 19.3314 14.0013 23.175 14.0013H36C36.5523 14.0013 37 14.4491 37 15.0013C37 15.5536 36.5523 16.0013 36 16.0013H23.175Z" fill="#000091"/>
<path fill-rule="evenodd" clip-rule="evenodd" d="M31 19.0013C31 18.4491 31.4477 18.0013 32 18.0013H48C48.5523 18.0013 49 18.4491 49 19.0013V24.0013C49 24.5536 48.5523 25.0013 48 25.0013H32C31.4477 25.0013 31 24.5536 31 24.0013V19.0013ZM33 20.0013V23.0013H47V20.0013H33Z" fill="#000091"/>
<path fill-rule="evenodd" clip-rule="evenodd" d="M27 32.0013C27 29.2399 29.2386 27.0013 32 27.0013H48C50.7614 27.0013 53 29.2399 53 32.0013V48.0013C53 50.7628 50.7614 53.0013 48 53.0013H32C29.2386 53.0013 27 50.7628 27 48.0013V32.0013ZM32 29.0013C30.3431 29.0013 29 30.3445 29 32.0013V48.0013C29 49.6582 30.3431 51.0013 32 51.0013H48C49.6569 51.0013 51 49.6582 51 48.0013V32.0013C51 30.3445 49.6569 29.0013 48 29.0013H32Z" fill="#000091"/>
<path fill-rule="evenodd" clip-rule="evenodd" d="M35.5 12.5013C35.5 10.0491 37.5477 8.00134 40 8.00134C42.4523 8.00134 44.5 10.0491 44.5 12.5013V19.0013C44.5 19.5536 44.0523 20.0013 43.5 20.0013H36.5C35.9477 20.0013 35.5 19.5536 35.5 19.0013V12.5013ZM40 10.0013C38.6523 10.0013 37.5 11.1536 37.5 12.5013V18.0013H42.5V12.5013C42.5 11.1536 41.3477 10.0013 40 10.0013Z" fill="#000091"/>
<path fill-rule="evenodd" clip-rule="evenodd" d="M43 15.0013C43 14.4491 43.4477 14.0013 44 14.0013H57C60.9632 14.0013 64 17.16 64 21.0013V66.0013C64 68.0002 63.1895 69.5507 61.8419 70.573C60.5301 71.5682 58.7951 72.0013 57 72.0013H23C21.1475 72.0013 19.4094 71.5397 18.1104 70.5277C16.7806 69.4916 16 67.9446 16 66.0013V56.0013C16 55.4491 16.4477 55.0013 17 55.0013C17.5523 55.0013 18 55.4491 18 56.0013V66.0013C18 67.3581 18.5194 68.311 19.3396 68.95C20.1906 69.613 21.4525 70.0013 23 70.0013H57C58.5049 70.0013 59.7699 69.6345 60.6331 68.9797C61.4605 68.352 62 67.4024 62 66.0013V21.0013C62 18.2427 59.8368 16.0013 57 16.0013H44C43.4477 16.0013 43 15.5536 43 15.0013Z" fill="#000091"/>
<path fill-rule="evenodd" clip-rule="evenodd" d="M40 34.0013C38.3431 34.0013 37 35.3445 37 37.0013C37 38.6582 38.3431 40.0013 40 40.0013C41.6569 40.0013 43 38.6582 43 37.0013C43 35.3445 41.6569 34.0013 40 34.0013ZM35 37.0013C35 34.2399 37.2386 32.0013 40 32.0013C42.7614 32.0013 45 34.2399 45 37.0013C45 39.7628 42.7614 42.0013 40 42.0013C37.2386 42.0013 35 39.7628 35 37.0013Z" fill="#000091"/>
<path fill-rule="evenodd" clip-rule="evenodd" d="M33 47.0013C33 43.3102 36.0956 40.0013 40 40.0013C43.8932 40.0013 47 43.1935 47 47.0013C47 47.5536 46.5523 48.0013 46 48.0013C45.4477 48.0013 45 47.5536 45 47.0013C45 44.2829 42.7735 42.0013 40 42.0013C37.2377 42.0013 35 44.3767 35 47.0013C35 47.5536 34.5523 48.0013 34 48.0013C33.4477 48.0013 33 47.5536 33 47.0013Z" fill="#000091"/>
</svg>