<?xml version="1.0" encoding="UTF-8"?>
<svg width="64px" height="65px" viewBox="0 0 64 65" version="1.1" xmlns="http://www.w3.org/2000/svg" xmlns:xlink="http://www.w3.org/1999/xlink">
    <title>Group 13</title>
    <g id="Maquettes" stroke="none" stroke-width="1" fill="none" fill-rule="evenodd">
        <g id="Accueil-06-01-blue-cumulus-975" transform="translate(-539.000000, -2952.000000)">
            <g id="services-et-ressources" transform="translate(119.000000, 2830.500000)">
                <g id="recrutement" transform="translate(307.000000, 78.000000)">
                    <g id="Group-13" transform="translate(113.000000, 44.000000)">
                        <path d="M48.2807018,64 L45.2185008,64 L45.2185008,44.9192547 C45.2185008,37.0293665 39.0359171,30.6086957 31.4385965,30.6086957 C23.8412759,30.6086957 17.6586922,37.0293665 17.6586922,44.9192547 L17.6586922,64 L14.5964912,64 L14.5964912,44.9192547 C14.5964912,35.2739379 22.150941,27.4285714 31.4385965,27.4285714 C40.7231898,27.4285714 48.2807018,35.2739379 48.2807018,44.9192547 L48.2807018,64 Z" id="Fill-1" fill="#000091"></path>
                        <path d="M2.96495861,64 L0,64 L0,50.0840336 C0,43.2621176 5.31913574,37.7142857 11.8598344,37.7142857 C12.7730417,37.7142857 13.6951438,37.8256134 14.5964912,38.042084 L13.9264106,41.0572101 C13.2415051,40.8902185 12.5477048,40.8067227 11.8598344,40.8067227 C6.95579289,40.8067227 2.96495861,44.9691429 2.96495861,50.0840336 L2.96495861,64 Z" id="Fill-3" fill="#000091"></path>
                        <path d="M64,64 L60.9122807,64 L60.9122807,50.0840336 C60.9122807,44.9691429 56.7562105,40.8067227 51.6491228,40.8067227 L51.6491228,37.7142857 C58.4606316,37.7142857 64,43.2621176 64,50.0840336 L64,64 Z" id="Fill-5" fill="#000091"></path>
                        <path d="M11.2280702,22.4761905 C7.92552047,22.4761905 5.23976608,25.2099048 5.23976608,28.5714286 C5.23976608,31.9329524 7.92552047,34.6666667 11.2280702,34.6666667 C14.5306199,34.6666667 17.2163743,31.9329524 17.2163743,28.5714286 C17.2163743,25.2099048 14.5306199,22.4761905 11.2280702,22.4761905 M11.2280702,37.7142857 C6.27574269,37.7142857 2.24561404,33.6121905 2.24561404,28.5714286 C2.24561404,23.5306667 6.27574269,19.4285714 11.2280702,19.4285714 C16.1803977,19.4285714 20.2105263,23.5306667 20.2105263,28.5714286 C20.2105263,33.6121905 16.1803977,37.7142857 11.2280702,37.7142857" id="Fill-7" fill="#417DC4"></path>
                        <path d="M52.7719298,22.4761905 C49.4693801,22.4761905 46.7836257,25.2099048 46.7836257,28.5714286 C46.7836257,31.9329524 49.4693801,34.6666667 52.7719298,34.6666667 C56.0744795,34.6666667 58.7602339,31.9329524 58.7602339,28.5714286 C58.7602339,25.2099048 56.0744795,22.4761905 52.7719298,22.4761905 M52.7719298,37.7142857 C47.8196023,37.7142857 43.7894737,33.6121905 43.7894737,28.5714286 C43.7894737,23.5306667 47.8196023,19.4285714 52.7719298,19.4285714 C57.7242573,19.4285714 61.754386,23.5306667 61.754386,28.5714286 C61.754386,33.6121905 57.7242573,37.7142857 52.7719298,37.7142857" id="Fill-9" fill="#417DC4"></path>
                        <path d="M31.4385965,3.04761905 C25.659883,3.04761905 20.9590643,7.83238095 20.9590643,13.7142857 C20.9590643,19.5961905 25.659883,24.3809524 31.4385965,24.3809524 C37.2173099,24.3809524 41.9181287,19.5961905 41.9181287,13.7142857 C41.9181287,7.83238095 37.2173099,3.04761905 31.4385965,3.04761905 M31.4385965,27.4285714 C24.0101053,27.4285714 17.9649123,21.2754286 17.9649123,13.7142857 C17.9649123,6.15314286 24.0101053,0 31.4385965,0 C38.8670877,0 44.9122807,6.15314286 44.9122807,13.7142857 C44.9122807,21.2754286 38.8670877,27.4285714 31.4385965,27.4285714" id="Fill-11" fill="#417DC4"></path>
                    </g>
                </g>
            </g>
        </g>
    </g>
</svg>