<?xml version="1.0" encoding="UTF-8"?>
<svg width="64px" height="65px" viewBox="0 0 64 65" version="1.1" xmlns="http://www.w3.org/2000/svg" xmlns:xlink="http://www.w3.org/1999/xlink">
    <title>Group 8</title>
    <defs>
        <polygon id="path-1" points="0 64 64 64 64 0 0 0"></polygon>
    </defs>
    <g id="Maquettes" stroke="none" stroke-width="1" fill="none" fill-rule="evenodd">
        <g id="Accueil-06-01-blue-cumulus-975" transform="translate(-227.000000, -3197.000000)">
            <g id="services-et-ressources" transform="translate(119.000000, 2830.500000)">
                <g id="Group-8" transform="translate(108.000000, 367.000000)">
                    <path d="M10.6279492,7.09359606 C9.89061343,7.09359606 9.29219601,7.69387192 9.29219601,8.43349754 L9.29219601,56.6699507 C9.29219601,57.4068966 9.89061343,58.0098522 10.6279492,58.0098522 L53.3720508,58.0098522 C54.1067151,58.0098522 54.707804,57.4068966 54.707804,56.6699507 L54.707804,8.43349754 C54.707804,7.69387192 54.1067151,7.09359606 53.3720508,7.09359606 L10.6279492,7.09359606 Z M53.3720508,60.6896552 L10.6279492,60.6896552 C8.41861343,60.6896552 6.62068966,58.8861478 6.62068966,56.6699507 L6.62068966,8.43349754 C6.62068966,6.21730049 8.41861343,4.4137931 10.6279492,4.4137931 L53.3720508,4.4137931 C55.5813866,4.4137931 57.3793103,6.21730049 57.3793103,8.43349754 L57.3793103,56.6699507 C57.3793103,58.8861478 55.5813866,60.6896552 53.3720508,60.6896552 L53.3720508,60.6896552 Z" id="Fill-1" fill="#000091"></path>
                    <mask id="mask-2" fill="white">
                        <use xlink:href="#path-1"></use>
                    </mask>
                    <g id="Clip-4"></g>
                    <polygon id="Fill-3" fill="#000091" mask="url(#mask-2)" points="8.82758621 17.6551724 56.2758621 17.6551724 56.2758621 15.4482759 8.82758621 15.4482759"></polygon>
                    <path d="M20.3699859,34.8739637 L27.07829,34.8739637 L27.07829,28.022588 L20.3699859,28.022588 L20.3699859,34.8739637 Z M17.6551724,37.5172414 L29.7931034,37.5172414 L29.7931034,25.3793103 L17.6551724,25.3793103 L17.6551724,37.5172414 Z" id="Fill-5" fill="#417DC4" mask="url(#mask-2)"></path>
                    <path d="M36.8857602,32.551921 L43.665964,32.551921 L43.665964,30.3391194 L36.8857602,30.3391194 L36.8857602,32.551921 Z M34.2068966,35.3103448 L46.3448276,35.3103448 L46.3448276,27.5862069 L34.2068966,27.5862069 L34.2068966,35.3103448 Z" id="Fill-6" fill="#417DC4" mask="url(#mask-2)"></path>
                    <path d="M21.4016106,46.9600789 L42.5983894,46.9600789 L42.5983894,44.626128 L21.4016106,44.626128 L21.4016106,46.9600789 Z M18.7586207,49.6551724 L45.2413793,49.6551724 L45.2413793,41.9310345 L18.7586207,41.9310345 L18.7586207,49.6551724 Z" id="Fill-7" fill="#417DC4" mask="url(#mask-2)"></path>
                </g>
            </g>
        </g>
    </g>
</svg>