<?xml version="1.0" encoding="UTF-8"?>
<svg width="58px" height="59px" viewBox="0 0 58 59" version="1.1" xmlns="http://www.w3.org/2000/svg" xmlns:xlink="http://www.w3.org/1999/xlink">
    <title>Group 5</title>
    <g id="Maquettes" stroke="none" stroke-width="1" fill="none" fill-rule="evenodd">
        <g id="Accueil-06-01-blue-cumulus-975" transform="translate(-547.000000, -3200.000000)">
            <g id="services-et-ressources" transform="translate(119.000000, 2830.500000)">
                <g id="Group-5" transform="translate(428.000000, 370.000000)">
                    <path d="M0,46 L17,46 L17,22 L0,22 L0,46 Z M2.83333333,43.3333333 L14.1666667,43.3333333 L14.1666667,24.6666667 L2.83333333,24.6666667 L2.83333333,43.3333333 Z" id="Fill-1" fill="#000091"></path>
                    <path d="M22.8305,44.3076923 L34.1638333,44.3076923 L34.1638333,14.6923077 L22.8305,14.6923077 L22.8305,44.3076923 Z M20,47 L37,47 L37,12 L20,12 L20,47 Z" id="Fill-2" fill="#000091"></path>
                    <path d="M40,46 L57,46 L57,0 L40,0 L40,46 Z M42.8333333,43.2941176 L54.1666667,43.2941176 L54.1666667,2.70588235 L42.8333333,2.70588235 L42.8333333,43.2941176 Z" id="Fill-3" fill="#000091"></path>
                    <path d="M0,58 L58,58 L58,50 L0,50 L0,58 Z M3.0054928,55.3779089 L54.9945072,55.3779089 L54.9945072,52.6220911 L3.0054928,52.6220911 L3.0054928,55.3779089 Z" id="Fill-4" fill="#417DC4"></path>
                </g>
            </g>
        </g>
    </g>
</svg>